PathFileType	4	(X/Y/Z)	RUN4
DataRate	CameraRate	NumFrames	NumMarkers	Units	OrigDataRate	OrigDataStartFrame	OrigNumFrames
100	100	4	42	mm	100	214	128
Frame#	Time	LPSI			RPSI			RTH2			RTH3			LTH1			LTH2			LTH3			RTB1			RTB2			LTB1			LTB2			RCAL			RTOE			RMT5			LCAL			LTOE			LMT5			LACR			RACR			CLAV			C7			RUA1			RUA2			RUA3			RLEL			LUA1			LUA2			LUA3			LLEL			LMEL			RFAsuperior			RFAulna			LFAsuperior			LFAradius			LFAulna			RASI			RTB3			LTB3			RMEL			RFAradius			RTH1			LASI		
		X1	Y1	Z1	X2	Y2	Z2	X3	Y3	Z3	X4	Y4	Z4	X5	Y5	Z5	X6	Y6	Z6	X7	Y7	Z7	X8	Y8	Z8	X9	Y9	Z9	X10	Y10	Z10	X11	Y11	Z11	X12	Y12	Z12	X13	Y13	Z13	X14	Y14	Z14	X15	Y15	Z15	X16	Y16	Z16	X17	Y17	Z17	X18	Y18	Z18	X19	Y19	Z19	X20	Y20	Z20	X21	Y21	Z21	X22	Y22	Z22	X23	Y23	Z23	X24	Y24	Z24	X25	Y25	Z25	X26	Y26	Z26	X27	Y27	Z27	X28	Y28	Z28	X29	Y29	Z29	X30	Y30	Z30	X31	Y31	Z31	X32	Y32	Z32	X33	Y33	Z33	X34	Y34	Z34	X35	Y35	Z35	X36	Y36	Z36	X37	Y37	Z37	X38	Y38	Z38	X39	Y39	Z39	X40	Y40	Z40	X41	Y41	Z41	X42	Y42	Z42	

214	  2.140000	854.785460	1132.638789	-418.320169	835.446586	1136.044832	-305.743330	957.903086	824.526809	-195.018093	1077.450794	724.155437	-200.175031	917.215513	929.196244	-519.110850	776.586611	828.856462	-474.946072	760.398865	687.163777	-466.246415	1158.725112	484.518526	-256.761520	1066.599811	459.752063	-192.279118	681.552732	465.620346	-399.945323	550.043054	433.057663	-451.387078	937.170803	202.944727	-271.903394	1174.842350	150.089749	-286.100874	1120.522629	130.449042	-195.448404	371.172994	315.998389	-377.615964	452.695492	 97.478518	-334.235795	392.013082	105.739257	-428.080656	987.569325	1561.104601	-509.942900	947.250620	1550.868141	-194.333877	1025.459535	1514.299507	-308.657190	912.159805	1577.633184	-364.868518	807.626458	1505.302704	-166.694355	817.116547	1445.940524	-112.042950	717.084394	1413.112794	-91.997572	657.715116	1373.392337	-74.627151	902.456702	1461.681951	-579.518037	937.058976	1387.708705	-599.903277	868.981156	1322.001173	-635.181445	859.481102	1253.892734	-655.685489	832.575988	1230.280874	-568.608222	720.048561	1287.617743	-49.764327	816.618969	1157.043152	-63.508732	936.210482	1234.025871	-630.121899	1065.495395	1307.947813	-516.995540	1092.021975	1243.142848	-537.168865	984.462918	1078.176778	-216.411161	1085.216856	309.761401	-269.206311	527.954551	311.024794	-392.896194	668.378090	1337.330384	-157.528911	868.476717	1190.642879	-93.464797	927.244469	975.728801	-159.489364	1005.292516	1076.324391	-503.133995	
215	  2.150000	856.473198	1135.329522	-418.491833	836.786076	1138.315834	-305.759932	954.602978	824.326335	-196.451602	1072.708429	721.928726	-200.635760	920.093144	932.450796	-519.450578	778.782738	834.015360	-475.007058	760.549912	692.023802	-465.748741	1166.609943	483.330142	-258.945799	1079.054112	448.276217	-193.500131	674.758192	472.505148	-398.389025	544.421553	443.074870	-454.895758	975.556603	181.262084	-276.470275	1216.416671	150.393285	-292.867911	1166.030745	124.818768	-203.647677	361.413012	336.588968	-387.789984	425.164614	113.815185	-335.736254	368.231595	123.103285	-431.164127	989.338543	1564.319505	-508.970961	945.944665	1553.166021	-193.937677	1025.104575	1516.759536	-307.509607	912.357504	1580.051912	-364.802094	805.463886	1508.972782	-169.343113	814.062001	1449.734365	-113.739735	713.150373	1417.745403	-95.432836	653.838338	1377.226471	-78.963274	905.069941	1465.588128	-579.822831	939.593588	1391.980299	-600.250868	871.538425	1326.834098	-636.967307	862.374942	1258.354382	-657.772629	834.376624	1234.569706	-571.287538	716.269891	1291.957003	-53.046393	814.617873	1162.130881	-66.114370	938.830835	1239.711105	-630.517368	1064.969543	1315.704443	-515.424603	1092.521586	1250.777510	-533.857239	984.590384	1080.341200	-216.826879	1111.506624	302.197191	-273.257361	515.199432	323.347080	-395.502198	665.818600	1340.955579	-161.533903	866.762917	1197.003343	-93.858506	926.744107	976.034173	-160.299567	1007.012392	1079.025557	-503.148585	
216	  2.160000	857.482459	1137.074121	-418.992113	837.525776	1139.241786	-305.808325	950.972715	823.207023	-196.213071	1066.903887	717.790223	-200.174385	923.946531	934.123230	-519.146927	782.476909	836.093725	-475.695977	764.183607	693.401624	-465.443143	1171.623636	481.244246	-260.913194	1089.093853	437.026291	-194.826383	670.035869	477.079697	-396.195377	540.924036	452.129950	-458.104846	1012.068993	162.472071	-280.485336	1253.356418	154.915707	-302.107307	1208.474630	121.444243	-213.115834	348.906769	357.189317	-397.685442	400.409447	133.541126	-336.406282	348.747846	142.106188	-434.330717	990.858693	1566.402437	-508.059485	945.141286	1554.450544	-193.179678	1024.802670	1518.276630	-306.472104	912.709428	1581.712421	-364.419120	803.957989	1511.034488	-171.130245	812.005385	1451.756998	-115.018197	710.283173	1420.633552	-98.528417	651.106128	1379.187991	-82.749402	907.612998	1468.366128	-580.203115	941.942505	1394.924743	-600.418759	873.997274	1330.289894	-638.538410	864.804326	1261.634795	-659.524681	835.771303	1237.880883	-573.828807	713.873136	1294.418813	-55.837409	814.084110	1165.504459	-68.078473	940.906206	1243.450756	-630.850762	1064.640889	1320.336302	-513.769509	1092.388847	1255.129151	-530.634568	984.302571	1081.786040	-217.415726	1134.824117	295.837191	-276.887002	502.599685	336.339618	-397.310719	664.454749	1342.645189	-164.896404	866.167982	1201.461544	-94.354940	925.837524	974.815438	-161.382887	1008.053788	1080.780605	-503.491753	
217	  2.170000	858.080181	1137.643136	-419.686996	837.758125	1138.800514	-306.152828	947.338207	821.491754	-195.218133	1059.506736	712.151139	-199.685116	928.707884	933.865803	-518.198517	787.360426	835.141908	-476.929560	770.730903	691.489143	-465.079786	1173.862817	478.531271	-262.688578	1096.003254	426.739925	-196.592566	667.248685	479.500118	-394.269112	538.978692	460.988355	-460.966283	1045.047560	146.748180	-283.669130	1284.185344	163.763538	-313.451870	1246.214494	121.042059	-223.386452	335.646161	378.221618	-406.896109	379.091666	155.545401	-336.888492	333.014838	162.388458	-437.853078	992.023999	1567.568273	-506.997687	944.804933	1554.733539	-192.154494	1024.681434	1518.922185	-305.414853	913.204905	1582.617586	-363.636717	803.085901	1511.460895	-171.899583	810.913445	1452.038225	-115.735120	708.562441	1421.604441	-101.059263	649.548851	1379.218124	-85.827944	909.805732	1470.060105	-580.413520	943.981086	1396.717075	-600.413317	876.264923	1332.469930	-639.805218	866.754349	1263.862691	-661.003206	836.383826	1240.347419	-575.964567	712.954132	1295.008018	-58.069857	815.008397	1167.127725	-69.395307	942.384614	1245.277402	-631.085526	1064.507526	1321.692524	-511.898823	1091.782454	1256.132678	-527.775942	983.853163	1082.799891	-217.954467	1154.310803	290.850323	-280.099458	490.933923	349.933934	-399.114079	664.265565	1342.403817	-167.516381	866.770570	1203.989523	-94.978265	925.048550	973.217449	-162.246314	1008.683643	1081.360135	-504.029493	
